<svg width="22" height="22" viewBox="0 0 22 22" fill="none" xmlns="http://www.w3.org/2000/svg">
<g id="Group 7">
<path id="Vector" d="M11.5287 0H10.4648V22H11.5287V0Z" fill="#F7B401"/>
<path id="Vector_2" d="M11.5287 0H10.4648V22H11.5287V0Z" fill="#F7B401"/>
<path id="Vector_3" d="M22 10.4683H0V11.5321H22V10.4683Z" fill="#F7B401"/>
<path id="Vector_4" d="M22 10.4683H0V11.5321H22V10.4683Z" fill="#F7B401"/>
<path id="Vector_5" d="M3.59988 2.84473L2.84766 3.59696L18.4039 19.1532L19.1561 18.4009L3.59988 2.84473Z" fill="#F7B401"/>
<path id="Vector_6" d="M3.59988 2.84473L2.84766 3.59696L18.4039 19.1532L19.1561 18.4009L3.59988 2.84473Z" fill="#F7B401"/>
<path id="Vector_7" d="M18.4039 2.84424L2.84766 18.4004L3.59988 19.1526L19.1561 3.59647L18.4039 2.84424Z" fill="#F7B401"/>
<path id="Vector_8" d="M18.4039 2.84424L2.84766 18.4004L3.59988 19.1526L19.1561 3.59647L18.4039 2.84424Z" fill="#F7B401"/>
<path id="Vector_9" d="M1.01857 6.36084L0.617188 7.34605L20.9914 15.6467L21.3928 14.6614L1.01857 6.36084Z" fill="#F7B401"/>
<path id="Vector_10" d="M1.01857 6.36084L0.617188 7.34605L20.9914 15.6467L21.3928 14.6614L1.01857 6.36084Z" fill="#F7B401"/>
<path id="Vector_11" d="M14.66 0.617676L6.35938 20.9918L7.34459 21.3932L15.6452 1.01906L14.66 0.617676Z" fill="#F7B401"/>
<path id="Vector_12" d="M14.66 0.617676L6.35938 20.9918L7.34459 21.3932L15.6452 1.01906L14.66 0.617676Z" fill="#F7B401"/>
<path id="Vector_13" d="M21.0149 6.39697L0.605469 14.6118L1.0027 15.5987L21.4121 7.38389L21.0149 6.39697Z" fill="#F7B401"/>
<path id="Vector_14" d="M21.0149 6.39697L0.605469 14.6118L1.0027 15.5987L21.4121 7.38389L21.0149 6.39697Z" fill="#F7B401"/>
<path id="Vector_15" d="M7.38731 0.605469L6.40039 1.0026L14.613 21.412L15.5999 21.0149L7.38731 0.605469Z" fill="#F7B401"/>
<path id="Vector_16" d="M7.38731 0.605469L6.40039 1.0026L14.613 21.412L15.5999 21.0149L7.38731 0.605469Z" fill="#F7B401"/>
</g>
</svg>
